REM DIRINDEX 1\2,1\3\7,1\3\8,1\4\9,1\4\10,1\4\11,1\5\12,1\5\13,1\5\14,1\6\15,1\6\16,1\6\17
REM DIRNAME "folder01","folder02","folder03","folder04","folder05","folder06","folder07","folder08","folder09","folder10","folder11","folder12","folder13","folder14","folder15","folder16","folder17"
TITLE ""
FILE "2Q_t_1018-1034.mp3" MP3
  TRACK 01 AUDIO
    TITLE "0:"
    INDEX 01 00:00:00
  TRACK 02 AUDIO
    TITLE "7:cjc174_3822"
    INDEX 01 00:00:12
  TRACK 03 AUDIO
    TITLE "0:"
    INDEX 01 00:01:43
  TRACK 04 AUDIO
    TITLE "8:cjc174_3823"
    INDEX 01 00:02:13
  TRACK 05 AUDIO
    TITLE "0:"
    INDEX 01 00:03:56
  TRACK 06 AUDIO
    TITLE "7:cjc174_3824"
    INDEX 01 00:04:24
  TRACK 07 AUDIO
    TITLE "0:"
    INDEX 01 00:05:23
  TRACK 08 AUDIO
    TITLE "8:cjc174_3825"
    INDEX 01 00:05:70
  TRACK 09 AUDIO
    TITLE "0:"
    INDEX 01 00:07:42
  TRACK 10 AUDIO
    TITLE "2:cjc174_3826"
    INDEX 01 00:08:12
  TRACK 11 AUDIO
    TITLE "0:"
    INDEX 01 00:09:19
  TRACK 12 AUDIO
    TITLE "7:cjc174_3827"
    INDEX 01 00:09:62
  TRACK 13 AUDIO
    TITLE "0:"
    INDEX 01 00:11:22
  TRACK 14 AUDIO
    TITLE "8:cjc174_3828"
    INDEX 01 00:12:00
  TRACK 15 AUDIO
    TITLE "0:"
    INDEX 01 00:15:31
  TRACK 16 AUDIO
    TITLE "7:cjc174_3829"
    INDEX 01 00:16:00
  TRACK 17 AUDIO
    TITLE "0:"
    INDEX 01 00:17:40
  TRACK 18 AUDIO
    TITLE "8:cjc174_3830"
    INDEX 01 00:18:12
  TRACK 19 AUDIO
    TITLE "0:"
    INDEX 01 00:20:38
  TRACK 20 AUDIO
    TITLE "7:cjc174_3831"
    INDEX 01 00:21:10
  TRACK 21 AUDIO
    TITLE "0:"
    INDEX 01 00:22:12
  TRACK 22 AUDIO
    TITLE "8:cjc174_3832"
    INDEX 01 00:22:73
  TRACK 23 AUDIO
    TITLE "0:"
    INDEX 01 00:25:10
  TRACK 24 AUDIO
    TITLE "7:cjc174_3833"
    INDEX 01 00:25:55
  TRACK 25 AUDIO
    TITLE "0:"
    INDEX 01 00:26:59
  TRACK 26 AUDIO
    TITLE "8:cjc174_3834"
    INDEX 01 00:27:37
  TRACK 27 AUDIO
    TITLE "0:"
    INDEX 01 00:29:57
  TRACK 28 AUDIO
    TITLE "7:cjc174_3835"
    INDEX 01 00:30:27
  TRACK 29 AUDIO
    TITLE "0:"
    INDEX 01 00:31:58
  TRACK 30 AUDIO
    TITLE "8:cjc174_3836"
    INDEX 01 00:32:32
  TRACK 31 AUDIO
    TITLE "0:"
    INDEX 01 00:34:39
  TRACK 32 AUDIO
    TITLE "7:cjc174_3837"
    INDEX 01 00:35:07
  TRACK 33 AUDIO
    TITLE "0:"
    INDEX 01 00:36:14
  TRACK 34 AUDIO
    TITLE "8:cjc174_3838"
    INDEX 01 00:36:61
  TRACK 35 AUDIO
    TITLE "0:"
    INDEX 01 00:39:26
  TRACK 36 AUDIO
    TITLE "7:cjc174_3839"
    INDEX 01 00:39:71
  TRACK 37 AUDIO
    TITLE "0:"
    INDEX 01 00:41:09
  TRACK 38 AUDIO
    TITLE "8:cjc174_3840"
    INDEX 01 00:41:54
  TRACK 39 AUDIO
    TITLE "0:"
    INDEX 01 00:44:12
  TRACK 40 AUDIO
    TITLE "7:cjc174_3841"
    INDEX 01 00:44:55
  TRACK 41 AUDIO
    TITLE "0:"
    INDEX 01 00:46:12
  TRACK 42 AUDIO
    TITLE "8:cjc174_3842"
    INDEX 01 00:46:59
  TRACK 43 AUDIO
    TITLE "0:"
    INDEX 01 00:48:05
  TRACK 44 AUDIO
    TITLE "7:cjc174_3843"
    INDEX 01 00:48:50
  TRACK 45 AUDIO
    TITLE "0:"
    INDEX 01 00:49:66
  TRACK 46 AUDIO
    TITLE "8:cjc174_3844"
    INDEX 01 00:50:42
  TRACK 47 AUDIO
    TITLE "0:"
    INDEX 01 00:51:33
  TRACK 48 AUDIO
    TITLE "7:cjc174_3845"
    INDEX 01 00:52:01
  TRACK 49 AUDIO
    TITLE "0:"
    INDEX 01 00:53:24
  TRACK 50 AUDIO
    TITLE "8:cjc174_3846"
    INDEX 01 00:54:00
  TRACK 51 AUDIO
    TITLE "0:"
    INDEX 01 00:55:70
  TRACK 52 AUDIO
    TITLE "7:cjc174_3847"
    INDEX 01 00:56:40
  TRACK 53 AUDIO
    TITLE "0:"
    INDEX 01 00:57:61
  TRACK 54 AUDIO
    TITLE "8:cjc174_3848"
    INDEX 01 00:58:37
  TRACK 55 AUDIO
    TITLE "0:"
    INDEX 01 01:01:69
  TRACK 56 AUDIO
    TITLE "7:cjc174_3849"
    INDEX 01 01:02:39
  TRACK 57 AUDIO
    TITLE "0:"
    INDEX 01 01:03:44
  TRACK 58 AUDIO
    TITLE "8:cjc174_3850"
    INDEX 01 01:04:28
  TRACK 59 AUDIO
    TITLE "0:"
    INDEX 01 01:06:58
  TRACK 60 AUDIO
    TITLE "7:cjc174_3851"
    INDEX 01 01:07:28
  TRACK 61 AUDIO
    TITLE "0:"
    INDEX 01 01:08:37
  TRACK 62 AUDIO
    TITLE "8:cjc174_3852"
    INDEX 01 01:09:29
  TRACK 63 AUDIO
    TITLE "0:"
    INDEX 01 01:11:71
  TRACK 64 AUDIO
    TITLE "7:cjc174_3853"
    INDEX 01 01:12:41
  TRACK 65 AUDIO
    TITLE "0:"
    INDEX 01 01:14:17
  TRACK 66 AUDIO
    TITLE "8:cjc174_3854"
    INDEX 01 01:14:64
  TRACK 67 AUDIO
    TITLE "0:"
    INDEX 01 01:17:34
  TRACK 68 AUDIO
    TITLE "7:cjc174_3855"
    INDEX 01 01:18:03
  TRACK 69 AUDIO
    TITLE "0:"
    INDEX 01 01:19:31
  TRACK 70 AUDIO
    TITLE "8:cjc174_3856"
    INDEX 01 01:20:03
  TRACK 71 AUDIO
    TITLE "0:"
    INDEX 01 01:22:26
